# xmcd CD database file
#
# Track frame offsets:
#	151
#	6268
#	21566
#	38697
#	51025
#	64427
#	72956
#	89760
#	98365
#	103853
#	117203
#	124552
#	137017
#	158464
#
# Disc length: 2549 seconds
#
# Revision: 0
# Processed by: cddbd v1.5.1PL0 Copyright (c) Steve Scherf et al.
# Submitted via: CDex 1.51
#
DISCID=b809f30e
DTITLE=New Age Hillbilly - New Age Hillbilly - IV White Walls (mt6 records 18)
DYEAR=2005
DGENRE=New Age
TTITLE0=Childs Eye
TTITLE1=Astroids Collide
TTITLE2=Ghost
TTITLE3=Kin Luck
TTITLE4=KO11
TTITLE5=Rock Roller
TTITLE6=Guaranteed Recovery
TTITLE7=Sin Sin Natty
TTITLE8=Deal Fuzzong
TTITLE9=White Walls
TTITLE10=Weekend Warrior
TTITLE11=Its Not Like
TTITLE12=Doctor Spins
TTITLE13=Lights On Einstien
EXTD=YEAR: 2005
EXTT0=
EXTT1=
EXTT2=
EXTT3=
EXTT4=
EXTT5=
EXTT6=
EXTT7=
EXTT8=
EXTT9=
EXTT10=
EXTT11=
EXTT12=
EXTT13=
PLAYORDER=
